<?xml version="1.0" encoding="UTF-8"?>
<svg id="Layer_2" data-name="Layer 2" xmlns="http://www.w3.org/2000/svg" viewBox="0 0 813.52 174.19">
  <defs>
    <style>
      .cls-1 {
        fill: #000;
        stroke-width: 0px;
      }
    </style>
  </defs>
  <g id="Layer_1-2" data-name="Layer 1">
    <g id="Monocromatico2">
      <g id="PINGOS">
        <circle class="cls-1" cx="432.6" cy="19.99" r="18.58"/>
        <circle class="cls-1" cx="107.04" cy="22.15" r="18.58"/>
      </g>
      <g id="S">
        <path class="cls-1" d="M211.55,173.69c-13.44,0-26.31-1.8-38.62-5.4-5.85-1.71-11.17-3.66-15.93-5.86-8.02-3.7-11.57-13.15-7.94-21.2l.08-.17c3.64-8.07,13.17-11.77,21.2-8.05,3.64,1.68,7.5,3.21,11.59,4.57,9.84,3.28,19.79,4.92,29.87,4.92,7.68,0,13.87-.76,18.59-2.28,4.72-1.52,8.19-3.64,10.44-6.36,2.24-2.72,3.36-5.84,3.36-9.36,0-4.48-1.76-8.04-5.28-10.68-3.52-2.64-8.16-4.8-13.91-6.48-5.76-1.68-12.12-3.28-19.07-4.8-6.96-1.52-13.91-3.4-20.87-5.64-6.96-2.24-13.31-5.12-19.07-8.64-5.76-3.52-10.44-8.16-14.03-13.92s-5.4-13.11-5.4-22.07c0-9.6,2.6-18.35,7.8-26.27,5.2-7.92,13.03-14.23,23.51-18.95,10.47-4.72,23.63-7.08,39.46-7.08,10.56,0,20.95,1.24,31.19,3.72,4.41,1.07,8.6,2.37,12.57,3.9,8.33,3.21,12.32,12.71,8.96,20.98h0c-3.28,8.08-12.45,12.16-20.56,8.96-3.12-1.23-6.24-2.27-9.36-3.13-7.84-2.16-15.52-3.24-23.03-3.24s-13.67.88-18.47,2.64c-4.8,1.76-8.24,4.04-10.32,6.84-2.08,2.8-3.12,6.04-3.12,9.72,0,4.32,1.76,7.8,5.28,10.44,3.52,2.64,8.16,4.76,13.91,6.36,5.76,1.6,12.12,3.2,19.07,4.8,6.96,1.6,13.91,3.44,20.87,5.52,6.96,2.08,13.31,4.88,19.07,8.4,5.76,3.52,10.44,8.16,14.03,13.91,3.6,5.76,5.4,13.04,5.4,21.83,0,9.44-2.64,18.08-7.92,25.91-5.28,7.84-13.16,14.15-23.63,18.95-10.48,4.8-23.71,7.2-39.7,7.2Z"/>
      </g>
      <g id="E">
        <path class="cls-1" d="M523.94,141.44h66.79c7.82,0,14.17,6.3,14.17,14.08v4.1c0,7.78-6.34,14.08-14.17,14.08h-106.98c-7.82,0-14.17-6.3-14.17-14.08V14.08c0-7.78,6.34-14.08,14.17-14.08h103.74c7.82,0,14.17,6.3,14.17,14.08v4.1c0,7.78-6.34,14.08-14.17,14.08h-63.54c-7.82,0-14.17,6.3-14.17,14.08v81.02c0,7.78,6.34,14.08,14.17,14.08Z"/>
        <rect class="cls-1" x="527.05" y="69.89" width="67.85" height="35.1" rx="17.55" ry="17.55"/>
      </g>
      <g id="T">
        <path class="cls-1" d="M667.71,157.77V49.27c0-9.07-7.13-16.42-15.92-16.42h-22.19c-8.79,0-15.92-7.35-15.92-16.42h0c0-9.07,7.13-16.42,15.92-16.42h115.29c8.79,0,15.92,7.35,15.92,16.42h0c0,9.07-7.13,16.42-15.92,16.42h-22.19c-8.79,0-15.92,7.35-15.92,16.42v108.5c0,9.07-7.13,16.42-15.92,16.42h-7.24c-8.79,0-15.92-7.35-15.92-16.42Z"/>
      </g>
      <g id="E-2" data-name="E">
        <rect class="cls-1" x="0" y=".19" width="76.79" height="43.91" rx="21.96" ry="21.96"/>
        <rect class="cls-1" x="0" y="67.01" width="129.46" height="43.91" rx="21.96" ry="21.96"/>
        <rect class="cls-1" x="0" y="130.28" width="129.46" height="43.91" rx="21.96" ry="21.96"/>
      </g>
      <g id="N">
        <path class="cls-1" d="M412.25,56.42v23.24c0,8.63-10.62,12.5-15.98,5.83L330.28,3.37c-1.71-2.13-4.27-3.37-6.97-3.37h-19.32c-4.98,0-9.01,4.12-9.01,9.19v155.31c0,5.08,4.04,9.19,9.01,9.19h20.9c4.98,0,9.01-4.12,9.01-9.19v-70.56c0-8.63,10.61-12.5,15.98-5.83l66.24,82.23c1.71,2.13,4.27,3.36,6.96,3.36h19.09c4.98,0,9.01-4.12,9.01-9.19V56.42c0-5.08-4.04-9.19-9.01-9.19h-20.9c-4.98,0-9.01,4.12-9.01,9.19Z"/>
      </g>
      <path class="cls-1" d="M797.98,3.62c6.97,0,12.62,5.65,12.62,12.62s-5.65,12.62-12.62,12.62-12.62-5.65-12.62-12.62,5.65-12.62,12.62-12.62ZM797.98,31.77c8.58,0,15.53-6.95,15.53-15.53s-6.95-15.53-15.53-15.53-15.53,6.95-15.53,15.53,6.95,15.53,15.53,15.53ZM792.16,9.93v12.62c0,.81.65,1.46,1.46,1.46s1.46-.65,1.46-1.46v-4.37h3.69l2.26,4.97c.33.73,1.2,1.06,1.93.72s1.06-1.2.72-1.93l-2.07-4.55c1.32-.87,2.2-2.37,2.2-4.06,0-2.68-2.17-4.85-4.85-4.85h-5.34c-.81,0-1.46.65-1.46,1.46ZM795.07,15.27v-3.88h3.88c1.07,0,1.94.87,1.94,1.94s-.87,1.94-1.94,1.94h-3.88Z"/>
    </g>
  </g>
</svg>